<svg xmlns="http://www.w3.org/2000/svg" xmlns:xlink="http://www.w3.org/1999/xlink" width="20" height="17" viewBox="0 0 20 17"><defs><path id="a" d="M558.5 798a2.5 2.5 0 1 1 0 5 2.5 2.5 0 0 1 0-5zm0 6a2.5 2.5 0 1 1 0 5 2.5 2.5 0 0 1 0-5zm0 6a2.5 2.5 0 1 1 0 5 2.5 2.5 0 0 1 0-5zm5 1h11a1.5 1.5 0 1 1 0 3h-11a1.5 1.5 0 1 1 0-3zm0-6h11a1.5 1.5 0 1 1 0 3h-11a1.5 1.5 0 1 1 0-3zm0-6h11a1.5 1.5 0 1 1 0 3h-11a1.5 1.5 0 1 1 0-3z"/></defs><desc>Generated with Avocode.</desc><g transform="translate(-556 -798)"><use fill="#c12025" xlink:href="#a"/></g></svg>