<svg xmlns="http://www.w3.org/2000/svg" xmlns:xlink="http://www.w3.org/1999/xlink" width="19" height="17" viewBox="0 0 19 17"><defs><path id="a" d="M523.5 798a2.5 2.5 0 1 1 0 5 2.5 2.5 0 0 1 0-5zm7 0a2.5 2.5 0 1 1 0 5 2.5 2.5 0 0 1 0-5zm7 0a2.5 2.5 0 1 1 0 5 2.5 2.5 0 0 1 0-5zm-14 6a2.5 2.5 0 1 1 0 5 2.5 2.5 0 0 1 0-5zm7 0a2.5 2.5 0 1 1 0 5 2.5 2.5 0 0 1 0-5zm7 0a2.5 2.5 0 1 1 0 5 2.5 2.5 0 0 1 0-5zm-14 6a2.5 2.5 0 1 1 0 5 2.5 2.5 0 0 1 0-5zm7 0a2.5 2.5 0 1 1 0 5 2.5 2.5 0 0 1 0-5zm7 0a2.5 2.5 0 1 1 0 5 2.5 2.5 0 0 1 0-5z"/></defs><desc>Generated with Avocode.</desc><use fill="#d2d2d2" xlink:href="#a" transform="translate(-521 -798)"/></svg>